<svg width="20" height="20" viewBox="0 0 20 20" fill="none" xmlns="http://www.w3.org/2000/svg">
<path d="M7.10969 2.44727C8.9304 1.38935 11.1684 1.40785 12.972 2.4957C14.7579 3.60572 15.8433 5.58677 15.8333 7.71783C15.7916 9.83491 14.6277 11.825 13.1729 13.3634C12.3332 14.2553 11.3938 15.044 10.374 15.7133C10.269 15.7741 10.154 15.8147 10.0346 15.8333C9.91967 15.8284 9.80777 15.7944 9.70896 15.7345C8.15202 14.7288 6.78611 13.445 5.67694 11.9449C4.74882 10.6928 4.22153 9.17997 4.16667 7.61198L4.17082 7.38387C4.2466 5.33716 5.354 3.4674 7.10969 2.44727ZM10.7561 5.86227C10.0159 5.54765 9.16254 5.71858 8.59443 6.29525C8.02633 6.87191 7.85554 7.74056 8.1618 8.49561C8.46807 9.25066 9.19099 9.74316 9.993 9.74317C10.5184 9.74694 11.0235 9.53648 11.3957 9.15869C11.7679 8.7809 11.9762 8.26716 11.9744 7.73194C11.9772 6.91499 11.4962 6.17689 10.7561 5.86227Z" fill="#E90C31"/>
<path opacity="0.4" d="M10 18.3333C12.3012 18.3333 14.1667 17.9602 14.1667 17.5C14.1667 17.0397 12.3012 16.6666 10 16.6666C7.69881 16.6666 5.83333 17.0397 5.83333 17.5C5.83333 17.9602 7.69881 18.3333 10 18.3333Z" fill="#E90C31"/>
</svg>
