<svg width="20" height="20" viewBox="0 0 20 20" fill="none" xmlns="http://www.w3.org/2000/svg">
<path fill-rule="evenodd" clip-rule="evenodd" d="M9.11562 1C13.5906 1 17.2306 4.64 17.2306 9.115C17.2306 11.2263 16.4204 13.1519 15.0945 14.5971L18.7035 18.2006C18.9476 18.4447 18.9485 18.8397 18.7043 19.0839C18.5826 19.2072 18.4218 19.2681 18.2618 19.2681C18.1026 19.2681 17.9426 19.2072 17.8201 19.0856L14.1797 15.4525C12.7907 16.5649 11.0295 17.2308 9.11562 17.2308C4.64062 17.2308 0.999786 13.59 0.999786 9.115C0.999786 4.64 4.64062 1 9.11562 1ZM9.11562 2.25C5.32979 2.25 2.24979 5.32917 2.24979 9.115C2.24979 12.9008 5.32979 15.9808 9.11562 15.9808C12.9006 15.9808 15.9806 12.9008 15.9806 9.115C15.9806 5.32917 12.9006 2.25 9.11562 2.25Z" fill="#E90C31"/>
</svg>
